<svg width="50" height="50" viewBox="0 0 50 50" fill="none" xmlns="http://www.w3.org/2000/svg">
<path d="M33.332 49.9987V41.6654C37.9431 41.6654 41.6654 37.9431 41.6654 33.332H49.9987C49.9987 42.5543 42.5265 49.9987 33.332 49.9987Z" fill="#FFD11A"/>
<path d="M33.3327 49.9987V41.6654C28.7216 41.6654 24.9993 37.9431 24.9993 33.332H16.666C16.666 42.5543 24.1382 49.9987 33.3327 49.9987Z" fill="#FFD11A"/>
<path d="M0 33.3359H8.33333C8.33333 37.947 12.0556 41.6693 16.6667 41.6693V50.0026C7.47222 50.0026 0 42.5582 0 33.3359Z" fill="#FFD11A"/>
<path d="M0 33.3346H8.33333C8.33333 28.7235 12.0556 25.0013 16.6667 25.0013V16.668C7.47222 16.668 0 24.1402 0 33.3346Z" fill="#FFD11A"/>
<path d="M16.6667 0V8.33333C12.0556 8.33333 8.33333 12.0556 8.33333 16.6667H0C0 7.47222 7.47222 0 16.6667 0Z" fill="#FFD11A"/>
<path d="M16.666 0V8.33333C21.2771 8.33333 24.9993 12.0556 24.9993 16.6667H33.3327C33.3327 7.47222 25.8605 0 16.666 0Z" fill="#FFD11A"/>
<path d="M50.0007 16.6667H41.6673C41.6673 12.0556 37.9451 8.33333 33.334 8.33333V0C42.5284 0 50.0007 7.47222 50.0007 16.6667Z" fill="#FFD11A"/>
<path d="M50.0007 16.668H41.6673C41.6673 21.2791 37.9451 25.0013 33.334 25.0013V33.3346C42.5284 33.3346 50.0007 25.8902 50.0007 16.668Z" fill="#FFD11A"/>
</svg>
