<svg width="21" height="21" viewBox="0 0 21 21" fill="none" xmlns="http://www.w3.org/2000/svg">
<path d="M19.2646 0H1.53544C1.12822 0 0.737673 0.16177 0.449722 0.449722C0.16177 0.737673 0 1.12822 0 1.53544V19.2646C0 19.6718 0.16177 20.0623 0.449722 20.3503C0.737673 20.6382 1.12822 20.8 1.53544 20.8H19.2646C19.6718 20.8 20.0623 20.6382 20.3503 20.3503C20.6382 20.0623 20.8 19.6718 20.8 19.2646V1.53544C20.8 1.12822 20.6382 0.737673 20.3503 0.449722C20.0623 0.16177 19.6718 0 19.2646 0ZM6.19956 17.719H3.07233V7.78556H6.19956V17.719ZM4.63378 6.409C4.27905 6.407 3.93286 6.29997 3.6389 6.10141C3.34495 5.90285 3.11639 5.62166 2.98209 5.29333C2.84779 4.965 2.81376 4.60425 2.88429 4.25659C2.95483 3.90894 3.12676 3.58997 3.3784 3.33994C3.63004 3.08991 3.95011 2.92003 4.2982 2.85173C4.6463 2.78343 5.00683 2.81978 5.33429 2.95619C5.66175 3.09259 5.94147 3.32294 6.13814 3.61817C6.33481 3.9134 6.43961 4.26027 6.43933 4.615C6.44268 4.8525 6.39818 5.08823 6.30848 5.30816C6.21878 5.52809 6.08572 5.72771 5.91723 5.89512C5.74874 6.06254 5.54827 6.19431 5.32777 6.2826C5.10727 6.37088 4.87125 6.41387 4.63378 6.409ZM17.7262 17.7277H14.6004V12.3009C14.6004 10.7004 13.9201 10.2064 13.0419 10.2064C12.1146 10.2064 11.2046 10.9056 11.2046 12.3413V17.7277H8.07733V7.79278H11.0847V9.16933H11.1251C11.427 8.55833 12.4843 7.514 14.0978 7.514C15.8427 7.514 17.7277 8.54967 17.7277 11.583L17.7262 17.7277Z" fill="white"/>
</svg>
