<svg width="24" height="14" viewBox="0 0 24 14" fill="none" xmlns="http://www.w3.org/2000/svg">
<path d="M13.5374 6.8277C13.5374 10.5984 10.5069 13.6552 6.76883 13.6552C3.03073 13.6552 0 10.5977 0 6.8277C0 3.05767 3.0305 0 6.76883 0C10.5072 0 13.5374 3.05698 13.5374 6.8277Z" fill="white"/>
<path d="M20.9622 6.82619C20.9622 10.3755 19.447 13.2539 17.5778 13.2539C15.7086 13.2539 14.1934 10.3755 14.1934 6.82619C14.1934 3.27687 15.7084 0.398438 17.5776 0.398438C19.4467 0.398438 20.962 3.27595 20.962 6.82619" fill="white"/>
<path d="M23.9995 6.82856C23.9995 10.0079 23.4667 12.5868 22.8092 12.5868C22.1517 12.5868 21.6191 10.0086 21.6191 6.82856C21.6191 3.64855 22.152 1.07031 22.8092 1.07031C23.4665 1.07031 23.9995 3.64832 23.9995 6.82856Z" fill="white"/>
</svg>
