<svg width="68" height="34" viewBox="0 0 68 34" fill="none" xmlns="http://www.w3.org/2000/svg">
    <g clip-path="url(#clip0_14_196216)">
        <path d="M0.000854492 25.0743L6.98108 14.2129H0.827754C0.775607 13.9 0.753259 13.5573 0.753259 13.1774C0.753259 12.8123 0.775607 12.4771 0.827754 12.1717H10.7878L10.9144 12.5069L3.88207 23.3907H10.4749C10.5271 23.7334 10.5494 24.091 10.5494 24.4485C10.5494 24.7912 10.5271 25.119 10.4749 25.4319H0.127497L0.000854492 25.0743Z" fill="#4C4C4D"/>
        <path d="M20.1445 16.6937C20.1445 15.6731 19.8837 14.9729 19.3697 14.5706C18.8557 14.1758 18.1033 13.9746 17.12 13.9746C16.5166 13.9746 15.9504 14.0193 15.4289 14.1162C14.9 14.213 14.3934 14.3322 13.8869 14.4886C13.5591 13.9225 13.3952 13.2371 13.3952 12.4475C13.9837 12.2612 14.6244 12.1122 15.3321 12.0079C16.0398 11.9036 16.7177 11.8515 17.3732 11.8515C19.0941 11.8515 20.4052 12.2463 21.3066 13.0285C22.2006 13.8107 22.655 15.0697 22.655 16.7905V25.0893C22.0516 25.2234 21.3215 25.3724 20.4574 25.514C19.5932 25.663 18.7142 25.73 17.8202 25.73C16.9784 25.73 16.2111 25.6555 15.5332 25.4991C14.8553 25.3426 14.2742 25.0968 13.7975 24.7467C13.3207 24.404 12.9557 23.9645 12.6949 23.4281C12.4342 22.8917 12.3076 22.2436 12.3076 21.4912C12.3076 20.7537 12.4565 20.0981 12.762 19.5394C13.06 18.9807 13.4697 18.5114 13.9912 18.1464C14.5052 17.7739 15.1011 17.4983 15.779 17.3195C16.4495 17.1407 17.1572 17.0438 17.9022 17.0438C18.4534 17.0438 18.9079 17.0587 19.258 17.0811C19.6081 17.1034 19.9061 17.1407 20.1519 17.1705V16.6937H20.1445ZM20.1445 19.2042C19.8837 19.167 19.556 19.1372 19.1611 19.0999C18.7663 19.0627 18.4311 19.0478 18.1554 19.0478C17.0827 19.0478 16.2707 19.2489 15.712 19.6437C15.1533 20.0386 14.8702 20.642 14.8702 21.454C14.8702 21.968 14.967 22.3777 15.1533 22.6682C15.3395 22.9588 15.5779 23.1823 15.861 23.3387C16.1441 23.4951 16.457 23.592 16.8071 23.6218C17.1498 23.659 17.4775 23.6739 17.7904 23.6739C18.1852 23.6739 18.595 23.6516 19.0196 23.6069C19.4442 23.5622 19.8167 23.5026 20.1445 23.4132V19.2042Z" fill="#4C4C4D"/>
        <path d="M25.4485 12.1722C25.6198 12.135 25.7986 12.1126 25.9774 12.0977C26.1562 12.0829 26.3424 12.0754 26.5361 12.0754C26.7075 12.0754 26.8863 12.0829 27.0799 12.0977C27.2662 12.1126 27.4524 12.1424 27.6238 12.1722C27.6387 12.2095 27.661 12.3138 27.6908 12.4926C27.7132 12.6714 27.743 12.8651 27.7653 13.0736C27.7877 13.2822 27.8175 13.4759 27.8398 13.6696C27.8622 13.8633 27.8771 13.9825 27.8771 14.0346C28.0484 13.759 28.257 13.4908 28.4954 13.2301C28.7337 12.9693 29.0243 12.7384 29.3595 12.5298C29.6947 12.3212 30.0747 12.1573 30.4993 12.0382C30.9239 11.919 31.3932 11.8594 31.9073 11.8594C32.682 11.8594 33.4046 11.986 34.0676 12.2467C34.7306 12.5075 35.2968 12.9023 35.7736 13.4461C36.2503 13.9899 36.6154 14.6827 36.8835 15.5171C37.1517 16.3514 37.2858 17.3422 37.2858 18.482C37.2858 20.7616 36.6675 22.542 35.4383 23.8233C34.2017 25.1047 32.4585 25.7528 30.2013 25.7528C29.8214 25.7528 29.434 25.7304 29.0392 25.6783C28.6444 25.6261 28.2942 25.5591 28.0037 25.4697V31.5485C27.7951 31.5858 27.5791 31.6081 27.3407 31.623C27.1097 31.6379 26.8937 31.6454 26.7075 31.6454C26.5212 31.6454 26.3052 31.6379 26.0743 31.623C25.8433 31.6081 25.6273 31.5783 25.441 31.5485V12.1722H25.4485ZM28.0111 23.2646C28.3389 23.3838 28.6742 23.4732 29.0168 23.5254C29.3595 23.5775 29.8065 23.5999 30.3652 23.5999C30.9835 23.5999 31.5571 23.503 32.0711 23.3019C32.5852 23.1007 33.0321 22.7953 33.4046 22.3856C33.7771 21.9684 34.0676 21.4469 34.2837 20.8212C34.4997 20.1954 34.604 19.443 34.604 18.5863C34.604 17.2081 34.3507 16.1131 33.8441 15.3011C33.3376 14.4891 32.5032 14.0868 31.3485 14.0868C30.9165 14.0868 30.5067 14.1613 30.1045 14.3177C29.7096 14.4742 29.3521 14.7051 29.0466 15.018C28.7337 15.3309 28.4879 15.7182 28.2942 16.195C28.1005 16.6718 28.0111 17.2305 28.0111 17.886V23.2646Z" fill="#4C4C4D"/>
        <path d="M40.4742 14.1831H38.7906C38.7534 14.0415 38.731 13.8851 38.7161 13.7063C38.7012 13.5275 38.6938 13.3487 38.6938 13.1774C38.6938 13.006 38.7012 12.8272 38.7161 12.6485C38.731 12.4697 38.7608 12.3058 38.7906 12.1717H42.9847V25.4393C42.7985 25.4766 42.5824 25.4989 42.3515 25.5138C42.1206 25.5287 41.9045 25.5362 41.7183 25.5362C41.547 25.5362 41.3458 25.5287 41.1074 25.5138C40.8765 25.4989 40.6605 25.4691 40.4742 25.4393V14.1831Z" fill="#4C4C4D"/>
        <path d="M48.4899 19.4353C48.5272 20.8805 48.8996 21.9458 49.6148 22.6163C50.33 23.2867 51.3878 23.622 52.7809 23.622C54.0026 23.622 55.1722 23.4059 56.2747 22.9739C56.4162 23.2346 56.528 23.5475 56.6099 23.92C56.6993 24.2924 56.744 24.6575 56.7664 25.0225C56.2002 25.2609 55.5744 25.4471 54.8891 25.5663C54.2112 25.6855 53.4513 25.7451 52.6244 25.7451C51.4176 25.7451 50.3821 25.5738 49.518 25.2385C48.6538 24.9033 47.9461 24.4265 47.3874 23.8157C46.8287 23.2048 46.4189 22.4822 46.1582 21.6404C45.8975 20.806 45.7708 19.8897 45.7708 18.8841C45.7708 17.9007 45.8975 16.9844 46.1433 16.1277C46.3891 15.271 46.7765 14.5335 47.2905 13.9003C47.8046 13.2745 48.4601 12.768 49.2423 12.4029C50.0245 12.0305 50.9557 11.8442 52.021 11.8442C52.9373 11.8442 53.7344 12.0007 54.4272 12.3136C55.12 12.6264 55.6936 13.0511 56.163 13.5949C56.6248 14.1387 56.9824 14.7868 57.2208 15.5318C57.4592 16.2842 57.5858 17.0962 57.5858 17.9752C57.5858 18.2136 57.5784 18.4743 57.556 18.7351C57.5411 19.0033 57.5188 19.2342 57.5039 19.4204H48.4899V19.4353ZM55.0604 17.5208C55.0604 17.0366 54.9934 16.5747 54.8667 16.1352C54.7401 15.6957 54.5464 15.3157 54.3006 14.9879C54.0473 14.6602 53.7344 14.3994 53.347 14.1983C52.9596 13.9972 52.4978 13.9003 51.9614 13.9003C50.911 13.9003 50.1065 14.2206 49.5403 14.8539C48.9816 15.4945 48.6389 16.381 48.5197 17.5208H55.0604Z" fill="#4C4C4D"/>
        <path d="M60.4167 12.1717C60.6029 12.1344 60.7892 12.1121 60.9605 12.0972C61.1319 12.0823 61.3106 12.0748 61.5043 12.0748C61.6906 12.0748 61.8843 12.0823 62.0705 12.0972C62.2567 12.1121 62.4355 12.1419 62.5845 12.1717C62.6367 12.4324 62.6888 12.7676 62.741 13.1923C62.7931 13.6169 62.8154 13.9745 62.8154 14.265C63.1805 13.6765 63.6572 13.1699 64.2532 12.7378C64.8492 12.3058 65.609 12.0897 66.5402 12.0897C66.6818 12.0897 66.8233 12.0972 66.9648 12.1046C67.1138 12.1121 67.233 12.127 67.3373 12.1419C67.3746 12.2983 67.3969 12.4622 67.4118 12.6336C67.4267 12.8049 67.4342 12.9837 67.4342 13.1774C67.4342 13.386 67.4193 13.602 67.3969 13.8255C67.3746 14.049 67.3373 14.265 67.3075 14.4736C67.166 14.4363 67.0244 14.4214 66.8829 14.4214C66.7339 14.4214 66.6222 14.4214 66.5328 14.4214C66.0709 14.4214 65.6239 14.4885 65.1993 14.6151C64.7747 14.7418 64.3948 14.9727 64.0595 15.3005C63.7243 15.6283 63.4561 16.0752 63.255 16.6489C63.0538 17.215 62.957 17.9525 62.957 18.8465V25.4393C62.7707 25.4766 62.5547 25.4989 62.3238 25.5138C62.0928 25.5287 61.8768 25.5362 61.6906 25.5362C61.5043 25.5362 61.2883 25.5287 61.0574 25.5138C60.8264 25.4989 60.6029 25.4691 60.3943 25.4393V12.1717H60.4167Z" fill="#4C4C4D"/>
        <path d="M45.4206 4.36485H42.9176L44.6906 2.59185C44.549 2.39817 44.3926 2.21193 44.2287 2.04059C44.0573 1.86925 43.8786 1.71281 43.6774 1.57871L41.9044 3.35171V0.848659C41.6735 0.811411 41.4351 0.789062 41.1893 0.789062H41.1818C40.936 0.789062 40.6976 0.811411 40.4667 0.848659V3.35171L38.6937 1.57871C38.5 1.72026 38.3137 1.8767 38.1424 2.04059C37.9711 2.21193 37.8221 2.39072 37.6805 2.59185L39.461 4.36485H36.9579C36.9579 4.36485 36.8983 4.83417 36.8983 5.08C36.8983 5.32584 36.9207 5.56422 36.9579 5.79516H39.461L37.688 7.56815C37.9636 7.95553 38.3063 8.29821 38.7011 8.58129L40.4741 6.8083V9.31135C40.7051 9.34859 40.9434 9.37094 41.1893 9.37094H41.1967C41.4426 9.37094 41.6809 9.34859 41.9119 9.31135V6.8083L43.6849 8.58129C43.8786 8.43975 44.0648 8.28331 44.2361 8.11942C44.4075 7.94808 44.5639 7.76929 44.698 7.56815L42.925 5.79516H45.4281C45.4653 5.56422 45.4877 5.32584 45.4877 5.08V5.07255C45.4802 4.83417 45.4653 4.59578 45.4206 4.36485ZM42.262 5.08745C42.262 5.40778 42.2024 5.71321 42.0981 5.9963C41.815 6.10059 41.5096 6.16019 41.1893 6.16019C40.8689 6.16019 40.5635 6.10059 40.2804 5.9963C40.1761 5.71321 40.1165 5.40778 40.1165 5.08745V5.08C40.1165 4.75967 40.1761 4.45424 40.2804 4.17116C40.5635 4.06686 40.8689 4.00727 41.1893 4.00727C41.5096 4.00727 41.815 4.06686 42.0981 4.17116C42.2024 4.45424 42.262 4.75967 42.262 5.08745Z" fill="#4C4C4D"/>
    </g>
    <defs>
        <clipPath id="clip0_14_196216">
            <rect width="68" height="34" fill="white"/>
        </clipPath>
    </defs>
</svg>
