<svg width="100" height="34" viewBox="0 0 100 34" fill="none" xmlns="http://www.w3.org/2000/svg">
    <g clip-path="url(#clip0_14_196220)">
        <path d="M14.9289 2.17969C6.71365 2.17969 0.0535889 8.83957 0.0535889 17.0548C0.0535889 25.2703 6.71365 31.9297 14.9289 31.9297C23.145 31.9297 29.8043 25.2703 29.8043 17.0548C29.8043 8.8401 23.145 2.1804 14.9287 2.1804L14.9289 2.17969ZM21.7506 23.6338C21.4841 24.0708 20.9122 24.2094 20.4752 23.9411C16.9826 21.8078 12.5859 21.3246 7.40801 22.5077C6.90905 22.6213 6.41168 22.3087 6.298 21.8096C6.18378 21.3104 6.49517 20.8131 6.99537 20.6994C12.6618 19.4048 17.5223 19.9622 21.4433 22.3585C21.8802 22.6267 22.0188 23.1969 21.7506 23.6338ZM23.5713 19.5835C23.2356 20.1292 22.5215 20.3015 21.9762 19.9658C17.9777 17.5081 11.8827 16.7963 7.15329 18.2319C6.53993 18.4172 5.89211 18.0715 5.70596 17.4592C5.52122 16.8459 5.86707 16.1993 6.47936 16.0128C11.8816 14.3736 18.5976 15.1676 23.1894 17.9893C23.7347 18.325 23.907 19.0391 23.5713 19.5837V19.5835ZM23.7276 15.3659C18.9334 12.5183 11.0235 12.2565 6.44614 13.6457C5.71111 13.8686 4.9338 13.4537 4.71105 12.7187C4.4883 11.9833 4.90289 11.2065 5.63846 10.983C10.8929 9.38791 19.6279 9.6961 25.1476 12.9728C25.8101 13.3652 26.0268 14.2191 25.6343 14.8793C25.2435 15.5405 24.3873 15.7584 23.7283 15.3659H23.7276ZM40.5243 15.9115C37.9558 15.2991 37.4993 14.8692 37.4993 13.966C37.4993 13.1126 38.3021 12.5384 39.4976 12.5384C40.6557 12.5384 41.8032 12.9744 43.0076 13.8722C43.0431 13.8994 43.0893 13.9102 43.1337 13.9031C43.1799 13.8963 43.2189 13.8716 43.2456 13.8345L44.4997 12.0667C44.5512 11.9939 44.537 11.8936 44.4677 11.838C43.0342 10.6882 41.4213 10.1292 39.5349 10.1292C36.7621 10.1292 34.8242 11.7934 34.8242 14.1745C34.8242 16.7279 36.4956 17.6321 39.3839 18.33C41.8405 18.8961 42.2562 19.3704 42.2562 20.218C42.2562 21.1577 41.4178 21.7421 40.0678 21.7421C38.5686 21.7421 37.3447 21.2358 35.977 20.0528C35.9432 20.0226 35.897 20.0102 35.8544 20.012C35.8082 20.0155 35.7674 20.0368 35.7389 20.0706L34.3321 21.7439C34.2735 21.8149 34.2806 21.9179 34.3481 21.9783C35.9397 23.3994 37.8971 24.149 40.0109 24.149C42.9987 24.149 44.9295 22.5165 44.9295 19.9889C44.9349 17.8561 43.6577 16.6748 40.5296 15.9139L40.5243 15.9115ZM51.6901 13.3785C50.3952 13.3785 49.333 13.8887 48.4555 14.9341V13.7574C48.4555 13.6645 48.3809 13.5889 48.2885 13.5889H45.9882C45.8958 13.5889 45.8212 13.6645 45.8212 13.7574V26.8312C45.8212 26.9235 45.8958 26.9999 45.9882 26.9999H48.2885C48.3809 26.9999 48.4555 26.9235 48.4555 26.8312V22.7048C49.333 23.6871 50.3952 24.1685 51.6901 24.1685C54.097 24.1685 56.5341 22.3158 56.5341 18.7741C56.5377 15.2316 54.1006 13.3784 51.6919 13.3784L51.6901 13.3785ZM53.859 18.7741C53.859 20.5768 52.7488 21.8362 51.1572 21.8362C49.5852 21.8362 48.3986 20.52 48.3986 18.7741C48.3986 17.028 49.5852 15.7121 51.1572 15.7121C52.7222 15.7119 53.859 16.9994 53.859 18.7739V18.7741ZM62.7778 13.3785C59.6782 13.3785 57.25 15.7652 57.25 18.8126C57.25 21.8273 59.6622 24.188 62.7405 24.188C65.8508 24.188 68.2861 21.8096 68.2861 18.7741C68.2861 15.7488 65.8668 13.3789 62.7778 13.3789V13.3785ZM62.7778 21.854C61.1294 21.854 59.886 20.5289 59.886 18.7732C59.886 17.0095 61.0868 15.7297 62.7405 15.7297C64.3996 15.7297 65.6501 17.0542 65.6501 18.8117C65.6501 20.575 64.4422 21.854 62.7778 21.854ZM74.9046 13.5889H72.3734V11.0015C72.3734 10.9088 72.2988 10.8331 72.2064 10.8331H69.9061C69.8137 10.8331 69.7374 10.9088 69.7374 11.0015V13.5889H68.6325C68.5401 13.5889 68.4655 13.6645 68.4655 13.7574V15.7339C68.4655 15.8266 68.5401 15.9025 68.6325 15.9025H69.7374V21.0173C69.7374 23.0832 70.7658 24.1312 72.7961 24.1312C73.6203 24.1312 74.3042 23.9607 74.949 23.5948C75.0023 23.5663 75.0343 23.5095 75.0343 23.4491V21.5662C75.0343 21.5094 75.0041 21.4543 74.9543 21.4241C74.9046 21.3921 74.8424 21.3904 74.7909 21.417C74.3486 21.639 73.9205 21.7421 73.4409 21.7421C72.7038 21.7421 72.3734 21.4064 72.3734 20.6568V15.9034H74.9046C74.997 15.9034 75.0716 15.8277 75.0716 15.7348V13.7585C75.0751 13.6656 75.0005 13.5899 74.9064 13.5899L74.9046 13.5889ZM83.7222 13.599V13.2812C83.7222 12.3463 84.081 11.9294 84.8839 11.9294C85.3635 11.9294 85.7489 12.0247 86.1806 12.1685C86.2339 12.1852 86.2889 12.1769 86.3316 12.1451C86.376 12.1133 86.4008 12.0623 86.4008 12.0083V10.0704C86.4008 9.99629 86.3546 9.93075 86.2818 9.9089C85.8271 9.77337 85.2445 9.63428 84.3705 9.63428C82.2478 9.63428 81.1234 10.8304 81.1234 13.0922V13.5789H80.0186C79.9262 13.5789 79.8498 13.6546 79.8498 13.7473V15.7339C79.8498 15.8266 79.9262 15.9025 80.0186 15.9025H81.1234V23.7901C81.1234 23.8843 81.1998 23.9589 81.2922 23.9589H83.5907C83.6849 23.9589 83.7595 23.8843 83.7595 23.7901V15.903H85.907L89.1967 23.7901C88.8237 24.6179 88.456 24.7831 87.9551 24.7831C87.5501 24.7831 87.122 24.6623 86.6868 24.4225C86.646 24.4012 86.5962 24.3976 86.5536 24.4101C86.5092 24.4261 86.4719 24.458 86.4541 24.5007L85.6743 26.2112C85.637 26.293 85.669 26.3871 85.7472 26.4297C86.5607 26.8703 87.2943 27.0585 88.202 27.0585C89.9001 27.0585 90.8398 26.2663 91.6658 24.1383L95.6554 13.8292C95.6767 13.7773 95.6696 13.7187 95.6376 13.6727C95.6074 13.627 95.5559 13.5995 95.5008 13.5995H93.1064C93.0335 13.5995 92.9696 13.6452 92.9465 13.7125L90.4934 20.7171L87.8077 13.7079C87.7828 13.6427 87.7206 13.5995 87.6513 13.5995H83.7222V13.599ZM78.61 13.5889H76.3097C76.2173 13.5889 76.1409 13.6645 76.1409 13.7574V23.7901C76.1409 23.8843 76.2173 23.9589 76.3097 23.9589H78.61C78.7023 23.9589 78.7787 23.8843 78.7787 23.7901V13.7581C78.7787 13.6652 78.7041 13.5896 78.61 13.5896V13.5889ZM77.4731 9.02039C76.5619 9.02039 75.823 9.75791 75.823 10.669C75.823 11.5806 76.5619 12.319 77.4731 12.319C78.3844 12.319 79.1216 11.5806 79.1216 10.669C79.1216 9.75809 78.3826 9.02039 77.4731 9.02039ZM97.6199 16.8148C96.7105 16.8148 96.0017 16.0838 96.0017 15.1962C96.0017 14.3086 96.7194 13.5693 97.6288 13.5693C98.5383 13.5693 99.247 14.3001 99.247 15.187C99.247 16.0746 98.5294 16.8148 97.6199 16.8148ZM97.6288 13.7303C96.7993 13.7303 96.1723 14.3893 96.1723 15.1962C96.1723 16.0029 96.7957 16.653 97.6199 16.653C98.4495 16.653 99.0765 15.9945 99.0765 15.187C99.0765 14.3804 98.453 13.7303 97.6288 13.7303ZM97.9876 15.3534L98.4459 15.9943H98.0587L97.6466 15.4064H97.2931V15.9943H96.9698V14.2955H97.7265C98.1226 14.2955 98.382 14.4974 98.382 14.8374C98.3838 15.1159 98.2221 15.2861 97.9894 15.3534H97.9876ZM97.7141 14.587H97.2931V15.1243H97.7141C97.9237 15.1243 98.0498 15.0214 98.0498 14.8554C98.0498 14.6806 97.9237 14.587 97.7141 14.587Z" fill="#4C4C4D"/>
    </g>
    <defs>
        <clipPath id="clip0_14_196220">
            <rect width="99.1667" height="34" fill="white"/>
        </clipPath>
    </defs>
</svg>
