<svg width="95" height="34" viewBox="0 0 95 34" fill="none" xmlns="http://www.w3.org/2000/svg">
    <g clip-path="url(#clip0_14_196233)">
        <path d="M10.3669 4.25H0.000488281V29.0417L10.3669 4.25Z" fill="#4C4C4D"/>
        <path d="M17.6604 4.25H28.0133V29.0417L17.6604 4.25Z" fill="#4C4C4D"/>
        <path d="M14.0135 13.3906L20.6115 29.045H16.2826L14.3106 24.061H9.48193L14.0135 13.3906Z" fill="#4C4C4D"/>
        <path d="M44.9258 20.0143L46.1482 23.5194C46.1887 23.6071 46.2495 23.6477 46.3575 23.6477H48.7077C48.836 23.6477 48.8563 23.5869 48.836 23.4586L43.9803 9.97206C43.9601 9.86401 43.9398 9.84375 43.8318 9.84375H40.9143C40.8333 9.84375 40.786 9.90453 40.786 9.99232C40.7455 10.7014 40.6847 10.9175 40.5969 11.1269L36.268 23.4383C36.2477 23.5869 36.295 23.6477 36.4165 23.6477H38.5168C38.6452 23.6477 38.7059 23.6071 38.7532 23.4788L39.908 20.0143H44.9258ZM40.5766 17.7249C41.2114 15.807 42.0489 13.3488 42.3865 11.9441H42.4068C42.8255 13.4163 43.8115 16.3338 44.2572 17.7249H40.5766Z" fill="#4C4C4D"/>
        <path d="M55.0786 23.8556C56.3415 23.8556 57.6854 23.626 59.0496 23.0384C59.1576 22.9979 59.1779 22.9506 59.1779 22.8493C59.1374 22.4712 59.0901 21.9241 59.0901 21.5054V8.80906C59.0901 8.72802 59.0901 8.6875 58.9888 8.6875H56.6994C56.6116 8.6875 56.5711 8.72802 56.5711 8.83608V13.138C56.2131 13.0975 55.9633 13.0772 55.6661 13.0772C51.972 13.0772 49.7029 15.5152 49.7029 18.5609C49.7029 22.093 52.0328 23.8556 55.0786 23.8556ZM56.5711 21.5054C56.1929 21.627 55.7742 21.6743 55.3487 21.6743C53.6739 21.6743 52.3029 20.7288 52.3029 18.4326C52.3029 16.3999 53.7144 15.1978 55.5851 15.1978C55.9633 15.1978 56.2942 15.2383 56.5711 15.3463V21.5054Z" fill="#4C4C4D"/>
        <path d="M66.4801 13.0781C63.3262 13.0781 61.3745 15.4958 61.3745 18.4808C61.3745 21.1484 62.9278 23.8565 66.4328 23.8565C69.3975 23.8565 71.4776 21.6752 71.4776 18.4133C71.4776 15.5364 69.7149 13.0781 66.4801 13.0781ZM66.3518 15.1987C68.1346 15.1987 68.891 16.7317 68.891 18.4808C68.891 20.6419 67.7767 21.7157 66.4801 21.7157C64.8795 21.7157 63.934 20.3718 63.934 18.4336C63.934 16.4413 64.9403 15.1987 66.3518 15.1987Z" fill="#4C4C4D"/>
        <path d="M73.8454 8.6875C73.7576 8.6875 73.6968 8.72802 73.6968 8.83608V23.2073C73.6968 23.2681 73.7576 23.3761 73.8454 23.3964C74.8516 23.707 75.9051 23.8556 76.9924 23.8556C80.1057 23.8556 83.1312 21.9241 83.1312 18.0342C83.1312 15.218 81.1998 13.0772 78.1743 13.0772C77.4787 13.0772 76.8303 13.1853 76.2631 13.3743L76.236 8.85633C76.236 8.70776 76.1955 8.6875 76.047 8.6875H73.8454ZM80.5447 18.2908C80.5447 20.6207 78.9509 21.7148 77.2288 21.7148C76.8709 21.7148 76.5535 21.6945 76.2631 21.6067V15.4746C76.594 15.3463 76.9924 15.2383 77.7285 15.2383C79.3899 15.2383 80.5447 16.2918 80.5447 18.2908Z" fill="#4C4C4D"/>
        <path d="M91.6753 19.0481C92.7018 19.0481 93.546 19.0279 93.8364 18.9603C93.9444 18.9401 93.985 18.8995 94.0052 18.8117C94.066 18.5821 94.093 18.1026 94.093 17.5151C94.093 15.5161 92.8909 13.0781 89.7844 13.0781C86.6103 13.0781 84.8477 15.6647 84.8477 18.5821C84.8477 21.1687 86.2118 23.8565 90.0343 23.8565C91.466 23.8565 92.3912 23.6269 93.1881 23.2487C93.2691 23.2082 93.3096 23.1407 93.3096 23.0191V21.27C93.3096 21.1687 93.2488 21.1484 93.1881 21.1889C92.3912 21.5266 91.5267 21.6954 90.5813 21.6954C88.4405 21.6954 87.468 20.5136 87.4072 19.0481H91.6753ZM87.4072 17.2382C87.576 16.2117 88.2243 15.0974 89.6763 15.0974C91.2769 15.0974 91.6956 16.4413 91.6956 17.0491C91.6956 17.0694 91.6956 17.1572 91.6956 17.2179C91.6078 17.2382 91.3376 17.2382 90.5407 17.2382H87.4072Z" fill="#4C4C4D"/>
    </g>
    <defs>
        <clipPath id="clip0_14_196233">
            <rect width="94.2083" height="34" fill="white"/>
        </clipPath>
    </defs>
</svg>
