<svg width="79" height="34" viewBox="0 0 79 34" fill="none" xmlns="http://www.w3.org/2000/svg">
    <g clip-path="url(#clip0_14_196248)">
        <path d="M10.8115 26.9584C9.62868 27.1661 8.42506 27.2284 7.17997 27.3942L3.38227 16.2713V27.8716C2.19945 27.9961 1.12038 28.1621 -0.000244141 28.3281V7.07813H3.15414L7.47045 19.1352V7.07813H10.8115V26.9584ZM17.3484 14.8601C18.6351 14.8601 20.6065 14.7978 21.7893 14.7978V18.1181C20.3159 18.1181 18.5936 18.1181 17.3484 18.1804V23.1194C19.2992 22.9949 21.2498 22.8288 23.2212 22.7665V25.9621L14.028 26.6886V7.07813H23.2212V10.3984H17.3484V14.8601ZM35.5686 10.3985H32.1238V25.6719C31.0032 25.6719 29.8825 25.6719 28.8036 25.7133V10.3985H25.3588V7.07812H35.5687L35.5686 10.3985ZM40.964 14.6319H45.5088V17.9521H40.964V25.4852H37.7058V7.07813H46.9822V10.3984H40.964V14.6319ZM52.3776 22.5798C54.2661 22.6212 56.1752 22.7667 58.0222 22.8703V26.1492C55.0547 25.9623 52.0871 25.7757 49.0574 25.7133V7.07813H52.3776V22.5798ZM60.8237 26.3774C61.882 26.4398 63.0026 26.5021 64.0817 26.6264V7.07813H60.8237V26.3774ZM78.629 7.07813L74.4162 17.1844L78.629 28.3281C77.3837 28.1621 76.1386 27.9338 74.8934 27.7263L72.5071 21.5838L70.0793 27.2284C68.8755 27.0207 67.7134 26.9584 66.51 26.7924L70.7848 17.0597L66.9249 7.07813H70.4941L72.673 12.6604L74.9973 7.07813H78.629V7.07813Z" fill="#4C4C4D"/>
    </g>
    <defs>
        <clipPath id="clip0_14_196248">
            <rect width="78.625" height="34" fill="white"/>
        </clipPath>
    </defs>
</svg>
