<svg width="92" height="34" viewBox="0 0 92 34" fill="none" xmlns="http://www.w3.org/2000/svg">
    <g clip-path="url(#clip0_14_196244)">
        <path d="M31.8296 24.6319V14.3221H32.0133L39.5179 24.6319H41.8795V9.49177H39.2555V19.7756H39.0718L31.5673 9.49177H29.2057V24.6319H31.8296ZM49.3053 24.8656C52.7689 24.8656 54.8943 22.6323 54.8943 18.8927C54.8943 15.1791 52.7689 12.9197 49.3053 12.9197C45.8679 12.9197 43.7162 15.1791 43.7162 18.8927C43.7425 22.6323 45.8416 24.8656 49.3053 24.8656ZM49.3053 22.6842C47.4685 22.6842 46.4189 21.3078 46.4189 18.8927C46.4189 16.5035 47.4685 15.1011 49.3053 15.1011C51.1421 15.1011 52.1917 16.5035 52.1917 18.8927C52.1917 21.3078 51.1421 22.6842 49.3053 22.6842ZM57.2822 10.3488V13.2314H55.4454V15.3089H57.2822V21.5675C57.2822 23.8009 58.3317 24.6838 61.0082 24.6838C61.5067 24.6838 62.0053 24.6319 62.3989 24.554V22.5284C62.084 22.5544 61.8741 22.5803 61.5067 22.5803C60.4047 22.5803 59.9061 22.0869 59.9061 20.9443V15.3089H62.3989V13.2314H59.9061V10.3488H57.2822ZM63.9733 24.6319H66.5973V13.1534H63.9733V24.6319ZM65.2853 11.2577C66.1512 11.2577 66.8596 10.5565 66.8596 9.69952C66.8596 8.81657 66.1512 8.1154 65.2853 8.1154C64.4194 8.1154 63.7109 8.81657 63.7109 9.69952C63.7109 10.5565 64.4194 11.2577 65.2853 11.2577ZM73.7869 24.8656C77.2506 24.8656 79.376 22.6323 79.376 18.8927C79.376 15.1791 77.2506 12.9197 73.7869 12.9197C70.3495 12.9197 68.1979 15.1791 68.1979 18.8927C68.1979 22.6323 70.2971 24.8656 73.7869 24.8656ZM73.7869 22.6842C71.9501 22.6842 70.9006 21.3078 70.9006 18.8927C70.9006 16.5035 71.9501 15.1011 73.7869 15.1011C75.5975 15.1011 76.6733 16.5035 76.6733 18.8927C76.6471 21.3078 75.5975 22.6842 73.7869 22.6842ZM80.9241 24.6319H83.5481V17.9578C83.5481 16.2698 84.5452 15.205 86.0934 15.205C87.694 15.205 88.4287 16.088 88.4287 17.8279V24.6319H91.0527V17.2047C91.0527 14.4519 89.6357 12.9197 87.0642 12.9197C85.3324 12.9197 84.1778 13.6988 83.6268 14.9973H83.4431V13.1534H80.8979C80.9241 13.1534 80.9241 24.6319 80.9241 24.6319Z" fill="#4C4C4D"/>
        <path fill-rule="evenodd" clip-rule="evenodd" d="M4.04628 8.52274C4.80999 9.13884 5.08623 9.0902 6.51615 8.99292L19.9867 8.18226C20.2792 8.18226 20.0354 7.89041 19.938 7.85799L17.6956 6.25287C17.2731 5.9286 16.6881 5.53948 15.5994 5.63676L2.56761 6.59335C2.09639 6.64199 1.99889 6.88519 2.19388 7.06353L4.04628 8.52274ZM4.85874 11.6519V25.79C4.85874 26.552 5.23247 26.8276 6.09368 26.779L20.8967 25.9197C21.7579 25.871 21.8554 25.3522 21.8554 24.7361V10.6953C21.8554 10.0792 21.6116 9.73874 21.0916 9.78738L5.62245 10.6953C5.05373 10.744 4.85874 11.0358 4.85874 11.6519ZM19.4667 12.4139C19.5642 12.8355 19.4667 13.2732 19.0443 13.3219L18.3293 13.4678V23.9092C17.7118 24.2335 17.1431 24.428 16.6556 24.428C15.8919 24.428 15.6969 24.1848 15.1282 23.4715L10.4647 16.1592V23.2283L11.9434 23.5525C11.9434 23.5525 11.9434 24.4118 10.7572 24.4118L7.47485 24.6064C7.37736 24.4118 7.47485 23.9416 7.79984 23.8444L8.66104 23.6012V14.2623L7.47485 14.165C7.37736 13.7434 7.6211 13.1273 8.28731 13.0787L11.8134 12.8355L16.6719 20.2288V13.6948L15.4369 13.5489C15.3394 13.0301 15.7294 12.6409 16.2006 12.5923L19.4667 12.4139ZM1.47892 5.29628L15.047 4.30726C16.7044 4.16134 17.1431 4.25862 18.183 5.02065L22.5053 8.05255C23.2203 8.57138 23.464 8.7173 23.464 9.28476V25.9359C23.464 26.9735 23.0903 27.5896 21.7579 27.6869L6.01243 28.6435C5.00498 28.6922 4.53376 28.5462 4.01379 27.8815L0.812702 23.7471C0.243981 22.9851 0.000244141 22.4176 0.000244141 21.7528V6.95004C0.000244141 6.09073 0.390224 5.39356 1.47892 5.29628Z" fill="#4C4C4D"/>
    </g>
    <defs>
        <clipPath id="clip0_14_196244">
            <rect width="91.375" height="34" fill="white"/>
        </clipPath>
    </defs>
</svg>
