<svg width="50" height="50" viewBox="0 0 50 50" fill="none" xmlns="http://www.w3.org/2000/svg">
<path d="M28.9266 34.418H21.1211V50.0013H28.9266V34.418Z" fill="#FFD11A"/>
<path d="M28.9266 0H21.1211V15.5833H28.9266V0Z" fill="#FFD11A"/>
<path d="M34.4102 21.0929V28.8984H49.9935V21.0929H34.4102Z" fill="#FFD11A"/>
<path d="M0 21.1007L0 28.9062H15.5833V21.1007H0Z" fill="#FFD11A"/>
<path d="M34.4236 28.8752L28.9043 34.3945L39.9233 45.4135L45.4426 39.8942L34.4236 28.8752Z" fill="#404040"/>
<path d="M10.0916 4.5471L4.57227 10.0664L15.5912 21.0854L21.1106 15.5661L10.0916 4.5471Z" fill="#404040"/>
<path d="M28.8869 15.5901L34.4062 21.1094L45.4252 10.0904L39.9059 4.57108L28.8869 15.5901Z" fill="#404040"/>
<path d="M4.55687 39.9182L10.0762 45.4375L21.0951 34.4185L15.5758 28.8992L4.55687 39.9182Z" fill="#404040"/>
</svg>
