<svg width="20" height="19" viewBox="0 0 20 19" fill="none" xmlns="http://www.w3.org/2000/svg">
<path d="M7.92895 0.98977C8.70164 -0.328195 10.607 -0.328193 11.3796 0.989773L13.1055 3.93352C13.3875 4.41449 13.8574 4.75592 14.402 4.87547L17.735 5.60718C19.2272 5.93477 19.816 7.74683 18.8013 8.88898L16.5349 11.44C16.1646 11.8568 15.9851 12.4093 16.0397 12.9641L16.3738 16.3601C16.5233 17.8805 14.9819 19.0004 13.5821 18.3884L10.4556 17.0212C9.94474 16.7979 9.36386 16.7979 8.85302 17.0212L5.7265 18.3884C4.3267 19.0004 2.78527 17.8805 2.93483 16.3601L3.26889 12.9641C3.32347 12.4093 3.14396 11.8568 2.77367 11.44L0.507318 8.88898C-0.507367 7.74683 0.0814083 5.93477 1.57364 5.60718L4.90662 4.87547C5.45119 4.75592 5.92113 4.41448 6.20311 3.93352L7.92895 0.98977Z" fill="#FFCE22"/>
</svg>
