<svg width="82" height="28" viewBox="0 0 82 28" fill="none" xmlns="http://www.w3.org/2000/svg">
    <g clip-path="url(#clip0_14_197991)">
        <path d="M12.2942 1.79688C5.5287 1.79688 0.0439453 7.28148 0.0439453 14.0469C0.0439453 20.8127 5.5287 26.2969 12.2942 26.2969C19.0604 26.2969 24.5446 20.8127 24.5446 14.0469C24.5446 7.28192 19.0604 1.79746 12.294 1.79746L12.2942 1.79688ZM17.9121 19.465C17.6926 19.8249 17.2216 19.939 16.8617 19.7181C13.9855 17.9612 10.3647 17.5633 6.10053 18.5376C5.68962 18.6312 5.28002 18.3737 5.1864 17.9627C5.09234 17.5516 5.34877 17.142 5.76071 17.0484C10.4272 15.9823 14.4299 16.4413 17.659 18.4147C18.0188 18.6356 18.1329 19.1051 17.9121 19.465ZM19.4115 16.1294C19.135 16.5788 18.5469 16.7207 18.0978 16.4442C14.805 14.4203 9.78556 13.8341 5.89076 15.0164C5.38564 15.1689 4.85214 14.8843 4.69884 14.38C4.5467 13.8749 4.83152 13.3424 5.33576 13.1888C9.78468 11.8389 15.3155 12.4928 19.0969 14.8165C19.546 15.093 19.6879 15.6811 19.4115 16.1296V16.1294ZM19.5402 12.6561C15.592 10.311 9.07798 10.0954 5.3084 11.2395C4.70308 11.4231 4.06294 11.0813 3.8795 10.476C3.69606 9.87041 4.03749 9.23071 4.64325 9.04669C8.97046 7.73306 16.164 7.98686 20.7096 10.6854C21.2552 11.0085 21.4337 11.7117 21.1104 12.2554C20.7886 12.7999 20.0835 12.9794 19.5408 12.6561H19.5402ZM33.3728 13.1055C31.2575 12.6011 30.8816 12.2471 30.8816 11.5032C30.8816 10.8005 31.5428 10.3275 32.5272 10.3275C33.481 10.3275 34.426 10.6867 35.4178 11.426C35.4471 11.4484 35.4851 11.4573 35.5217 11.4514C35.5597 11.4459 35.5919 11.4255 35.6138 11.395L36.6466 9.93916C36.689 9.87918 36.6773 9.79654 36.6203 9.75075C35.4398 8.80385 34.1115 8.3435 32.558 8.3435C30.2745 8.3435 28.6785 9.71403 28.6785 11.675C28.6785 13.7778 30.0551 14.5224 32.4336 15.0971C34.4567 15.5633 34.799 15.9539 34.799 16.652C34.799 17.4258 34.1086 17.9071 32.9968 17.9071C31.7622 17.9071 30.7543 17.4902 29.6279 16.5159C29.6001 16.4911 29.5621 16.4808 29.527 16.4823C29.4889 16.4852 29.4553 16.5028 29.4319 16.5306L28.2733 17.9085C28.225 17.9671 28.2309 18.0519 28.2865 18.1016C29.5972 19.2719 31.2092 19.8892 32.95 19.8892C35.4105 19.8892 37.0006 18.5449 37.0006 16.4633C37.005 14.7068 35.9532 13.734 33.3772 13.1074L33.3728 13.1055ZM42.5682 11.0195C41.5018 11.0195 40.627 11.4396 39.9043 12.3005V11.3315C39.9043 11.255 39.8429 11.1927 39.7668 11.1927H37.8725C37.7964 11.1927 37.7349 11.255 37.7349 11.3315V22.0981C37.7349 22.1742 37.7964 22.2371 37.8725 22.2371H39.7668C39.8429 22.2371 39.9043 22.1742 39.9043 22.0981V18.6999C40.627 19.5089 41.5018 19.9053 42.5682 19.9053C44.5503 19.9053 46.5573 18.3796 46.5573 15.4628C46.5602 12.5455 44.5532 11.0193 42.5696 11.0193L42.5682 11.0195ZM44.3543 15.4628C44.3543 16.9475 43.44 17.9846 42.1293 17.9846C40.8347 17.9846 39.8575 16.9006 39.8575 15.4628C39.8575 14.0249 40.8347 12.9412 42.1293 12.9412C43.4181 12.941 44.3543 14.0013 44.3543 15.4627V15.4628ZM51.6992 11.0195C49.1465 11.0195 47.1468 12.9849 47.1468 15.4946C47.1468 17.9773 49.1334 19.9214 51.6685 19.9214C54.2299 19.9214 56.2354 17.9627 56.2354 15.4628C56.2354 12.9715 54.2431 11.0198 51.6992 11.0198V11.0195ZM51.6992 17.9992C50.3417 17.9992 49.3177 16.908 49.3177 15.4621C49.3177 14.0096 50.3066 12.9557 51.6685 12.9557C53.0348 12.9557 54.0646 14.0465 54.0646 15.4938C54.0646 16.946 53.0699 17.9992 51.6992 17.9992ZM61.686 11.1927H59.6014V9.0619C59.6014 8.98554 59.54 8.92322 59.4639 8.92322H57.5695C57.4935 8.92322 57.4306 8.98554 57.4306 9.0619V11.1927H56.5207C56.4446 11.1927 56.3832 11.255 56.3832 11.3315V12.9592C56.3832 13.0355 56.4446 13.098 56.5207 13.098H57.4306V17.3102C57.4306 19.0115 58.2776 19.8746 59.9496 19.8746C60.6283 19.8746 61.1915 19.7342 61.7225 19.4328C61.7664 19.4094 61.7928 19.3626 61.7928 19.3129V17.7623C61.7928 17.7154 61.7679 17.6701 61.7269 17.6452C61.686 17.6189 61.6348 17.6174 61.5923 17.6394C61.2281 17.8222 60.8756 17.9071 60.4806 17.9071C59.8735 17.9071 59.6014 17.6306 59.6014 17.0133V13.0987H61.686C61.762 13.0987 61.8235 13.0364 61.8235 12.9599V11.3324C61.8264 11.2559 61.765 11.1935 61.6874 11.1935L61.686 11.1927ZM68.9475 11.201V10.9393C68.9475 10.1694 69.243 9.82608 69.9042 9.82608C70.2991 9.82608 70.6166 9.90449 70.972 10.023C71.0159 10.0367 71.0613 10.0299 71.0964 10.0037C71.133 9.97749 71.1534 9.9355 71.1534 9.89103V8.29508C71.1534 8.23408 71.1154 8.1801 71.0554 8.16211C70.6809 8.0505 70.2011 7.93596 69.4814 7.93596C67.7333 7.93596 66.8074 8.92103 66.8074 10.7837V11.1845H65.8975C65.8214 11.1845 65.7585 11.2468 65.7585 11.3231V12.9592C65.7585 13.0355 65.8214 13.098 65.8975 13.098H66.8074V19.5937C66.8074 19.6713 66.8703 19.7327 66.9463 19.7327H68.8392C68.9168 19.7327 68.9782 19.6713 68.9782 19.5937V13.0984H70.7468L73.4559 19.5937C73.1488 20.2754 72.8459 20.4115 72.4334 20.4115C72.0999 20.4115 71.7474 20.312 71.389 20.1145C71.3553 20.0969 71.3144 20.094 71.2792 20.1043C71.2427 20.1174 71.212 20.1438 71.1973 20.1789L70.5551 21.5876C70.5244 21.6549 70.5508 21.7324 70.6151 21.7675C71.2851 22.1303 71.8893 22.2853 72.6368 22.2853C74.0352 22.2853 74.8091 21.6329 75.4893 19.8804L78.7748 11.3906C78.7924 11.3479 78.7865 11.2996 78.7602 11.2617C78.7353 11.2241 78.6929 11.2014 78.6476 11.2014H76.6756C76.6157 11.2014 76.563 11.239 76.544 11.2945L74.5238 17.063L72.312 11.2907C72.2915 11.237 72.2403 11.2014 72.1833 11.2014H68.9475V11.201ZM64.7374 11.1927H62.8431C62.767 11.1927 62.7041 11.255 62.7041 11.3315V19.5937C62.7041 19.6713 62.767 19.7327 62.8431 19.7327H64.7374C64.8135 19.7327 64.8764 19.6713 64.8764 19.5937V11.3321C64.8764 11.2556 64.815 11.1932 64.7374 11.1932V11.1927ZM63.8012 7.4304C63.0508 7.4304 62.4423 8.03777 62.4423 8.78806C62.4423 9.53878 63.0508 10.1469 63.8012 10.1469C64.5517 10.1469 65.1587 9.53878 65.1587 8.78806C65.1587 8.03791 64.5502 7.4304 63.8012 7.4304ZM80.3927 13.8493C79.6437 13.8493 79.0601 13.2474 79.0601 12.5164C79.0601 11.7854 79.6511 11.1766 80.4 11.1766C81.149 11.1766 81.7327 11.7784 81.7327 12.5088C81.7327 13.2398 81.1417 13.8493 80.3927 13.8493ZM80.4 11.3091C79.7169 11.3091 79.2005 11.8518 79.2005 12.5164C79.2005 13.1807 79.714 13.7161 80.3927 13.7161C81.0759 13.7161 81.5922 13.1738 81.5922 12.5088C81.5922 11.8445 81.0788 11.3091 80.4 11.3091ZM80.6955 12.6458L81.0729 13.1736H80.754L80.4147 12.6894H80.1236V13.1736H79.8573V11.7746H80.4805C80.8067 11.7746 81.0203 11.9409 81.0203 12.2209C81.0217 12.4503 80.8886 12.5904 80.697 12.6458H80.6955ZM80.4702 12.0146H80.1236V12.4571H80.4702C80.6429 12.4571 80.7467 12.3724 80.7467 12.2357C80.7467 12.0917 80.6429 12.0146 80.4702 12.0146Z" fill="#4C4C4D"/>
    </g>
    <defs>
        <clipPath id="clip0_14_197991">
            <rect width="81.6667" height="28" fill="white"/>
        </clipPath>
    </defs>
</svg>
