<svg width="78" height="34" viewBox="0 0 78 34" fill="none" xmlns="http://www.w3.org/2000/svg">
    <g clip-path="url(#clip0_14_196228)">
        <path fill-rule="evenodd" clip-rule="evenodd" d="M48.1189 26.7787C43.6114 30.1011 37.078 31.8738 31.4529 31.8738C23.5656 31.8738 16.465 28.9565 11.0931 24.1046C10.671 23.7231 11.0492 23.2031 11.5556 23.5002C17.353 26.8733 24.5211 28.9025 31.9256 28.9025C36.9193 28.9025 42.4128 27.8693 47.4639 25.7253C48.227 25.4012 48.8651 26.225 48.1189 26.7787Z" fill="#4C4C4D"/>
        <path fill-rule="evenodd" clip-rule="evenodd" d="M49.9929 24.6347C49.4189 23.8987 46.1843 24.287 44.7324 24.4592C44.2901 24.5132 44.2226 24.1283 44.621 23.8514C47.1972 22.0383 51.4245 22.5616 51.9174 23.1694C52.4104 23.7805 51.7891 28.0179 49.3683 30.0404C48.9968 30.351 48.6423 30.1856 48.8078 29.7737C49.3514 28.4163 50.5703 25.3742 49.9929 24.6347Z" fill="#4C4C4D"/>
        <path fill-rule="evenodd" clip-rule="evenodd" d="M44.8349 11.0526V9.29008C44.8349 9.02335 45.0374 8.8444 45.2805 8.8444H53.1712C53.4245 8.8444 53.6271 9.02672 53.6271 9.29008V10.7993C53.6237 11.0526 53.411 11.3835 53.0328 11.9068L48.944 17.7446C50.4633 17.7075 52.0671 17.9337 53.4447 18.7103C53.7554 18.8859 53.8398 19.1425 53.8634 19.3957V21.2764C53.8634 21.533 53.5798 21.8335 53.2827 21.6782C50.855 20.4053 47.6305 20.2668 44.9463 21.6917C44.6728 21.8403 44.3858 21.5431 44.3858 21.2865V19.5004C44.3858 19.2134 44.3892 18.7238 44.6762 18.2883L49.4133 11.4949H45.2907C45.0374 11.4949 44.8349 11.3159 44.8349 11.0526Z" fill="#4C4C4D"/>
        <path fill-rule="evenodd" clip-rule="evenodd" d="M16.0508 22.0496H13.6502C13.4206 22.0327 13.2383 21.8605 13.2214 21.6411V9.3205C13.2214 9.07402 13.4273 8.87818 13.6839 8.87818H15.9225C16.1555 8.88831 16.3412 9.06726 16.3581 9.29011V10.9007H16.402C16.9861 9.34413 18.0834 8.6182 19.5623 8.6182C21.0648 8.6182 22.0035 9.34413 22.6787 10.9007C23.2595 9.34413 24.5797 8.6182 25.9944 8.6182C27.0006 8.6182 28.1013 9.0335 28.7732 9.96539C29.5329 11.002 29.3776 12.5078 29.3776 13.828L29.3742 21.6039C29.3742 21.8504 29.1682 22.0496 28.9116 22.0496H26.5144C26.2746 22.0327 26.0822 21.8403 26.0822 21.6039V15.0739C26.0822 14.554 26.1294 13.2574 26.0146 12.7644C25.8357 11.9372 25.2988 11.7042 24.6033 11.7042C24.0226 11.7042 23.4148 12.0925 23.1683 12.7138C22.9218 13.3351 22.9455 14.375 22.9455 15.0739V21.6039C22.9455 21.8504 22.7395 22.0496 22.4829 22.0496H20.0856C19.8425 22.0327 19.6535 21.8403 19.6535 21.6039L19.6501 15.0739C19.6501 13.6997 19.8763 11.6772 18.1712 11.6772C16.4459 11.6772 16.5134 13.6491 16.5134 15.0739V21.6039C16.5134 21.8504 16.3074 22.0496 16.0508 22.0496Z" fill="#4C4C4D"/>
        <path fill-rule="evenodd" clip-rule="evenodd" d="M60.4203 8.6182C63.9825 8.6182 65.9104 11.6772 65.9104 15.5669C65.9104 19.3248 63.7799 22.3062 60.4203 22.3062C56.9224 22.3062 55.0181 19.2472 55.0181 15.4352C55.0181 11.5996 56.946 8.6182 60.4203 8.6182ZM60.4406 11.1336C58.6713 11.1336 58.5599 13.5444 58.5599 15.0469C58.5599 16.5528 58.5363 19.7671 60.4203 19.7671C62.2807 19.7671 62.3685 17.1741 62.3685 15.5939C62.3685 14.554 62.3246 13.3114 62.0106 12.3255C61.7405 11.4679 61.2037 11.1336 60.4406 11.1336Z" fill="#4C4C4D"/>
        <path fill-rule="evenodd" clip-rule="evenodd" d="M70.5294 22.0496H68.1389C67.8992 22.0327 67.7067 21.8403 67.7067 21.6039L67.7034 9.27998C67.7236 9.05376 67.9228 8.87818 68.1659 8.87818H70.391C70.6003 8.88831 70.7725 9.03012 70.8198 9.22258V11.1066H70.8637C71.5356 9.42179 72.4776 8.6182 74.1355 8.6182C75.2125 8.6182 76.2626 9.00649 76.9379 10.0701C77.5659 11.056 77.5659 12.7138 77.5659 13.9057V21.6613C77.5389 21.8774 77.3397 22.0496 77.1033 22.0496H74.6959C74.4765 22.0327 74.2941 21.8707 74.2705 21.6613V14.9693C74.2705 13.6221 74.4258 11.6502 72.768 11.6502C72.1839 11.6502 71.647 12.0419 71.3803 12.6361C71.0427 13.3891 70.9988 14.1387 70.9988 14.9693V21.6039C70.9954 21.8504 70.786 22.0496 70.5294 22.0496Z" fill="#4C4C4D"/>
        <path fill-rule="evenodd" clip-rule="evenodd" d="M38.5446 16.1645C38.5446 17.0998 38.5682 17.8797 38.0955 18.7103C37.714 19.3856 37.1062 19.8009 36.4343 19.8009C35.5126 19.8009 34.9723 19.0986 34.9723 18.062C34.9723 16.0159 36.8057 15.6445 38.5446 15.6445V16.1645ZM40.9655 22.0158C40.8068 22.1576 40.5772 22.1678 40.3982 22.0732C39.6014 21.4114 39.4562 21.1042 39.0207 20.4728C37.7039 21.8166 36.7686 22.2184 35.0635 22.2184C33.041 22.2184 31.471 20.9725 31.471 18.4773C31.471 16.5291 32.5244 15.2022 34.0303 14.5539C35.3336 13.9799 37.1535 13.8786 38.5446 13.72V13.4093C38.5446 12.8387 38.5885 12.1634 38.2508 11.6705C37.9605 11.2282 37.4 11.0458 36.9036 11.0458C35.9886 11.0458 35.1749 11.5151 34.9757 12.4876C34.9352 12.7036 34.7765 12.9164 34.557 12.9265L32.2307 12.6766C32.0348 12.6327 31.8154 12.4741 31.8728 12.1736C32.4063 9.35086 34.9588 8.5 37.2413 8.5C38.4095 8.5 39.9357 8.81063 40.8574 9.69525C42.0257 10.7858 41.9143 12.2411 41.9143 13.8246V17.5657C41.9143 18.6901 42.3802 19.183 42.8191 19.7908C42.9711 20.0069 43.0048 20.2668 42.809 20.4289C42.3194 20.8375 41.4483 21.5972 40.9689 22.0226L40.9655 22.0158Z" fill="#4C4C4D"/>
        <path fill-rule="evenodd" clip-rule="evenodd" d="M7.07287 16.1645C7.07287 17.0997 7.0965 17.8797 6.62381 18.7103C6.24227 19.3856 5.63789 19.8009 4.96261 19.8009C4.04084 19.8009 3.50399 19.0986 3.50399 18.062C3.50399 16.0159 5.33739 15.6445 7.07287 15.6445V16.1645ZM9.49377 22.0158C9.33507 22.1576 9.10548 22.1678 8.92653 22.0732C8.12969 21.4114 7.98788 21.1042 7.54895 20.4728C6.23214 21.8166 5.30025 22.2184 3.59178 22.2184C1.57268 22.2184 -0.000732422 20.9725 -0.000732422 18.4773C-0.000732422 16.5291 1.05609 15.2022 2.55859 14.5539C3.86189 13.9799 5.68178 13.8786 7.07287 13.72V13.4093C7.07287 12.8387 7.11677 12.1634 6.7825 11.6705C6.48875 11.2281 5.92826 11.0458 5.43531 11.0458C4.5203 11.0458 3.7032 11.5151 3.50399 12.4876C3.46348 12.7036 3.30478 12.9164 3.08869 12.9265L0.758963 12.6766C0.56313 12.6327 0.347038 12.474 0.401061 12.1735C0.937913 9.35086 3.48711 8.5 5.76957 8.5C6.93781 8.5 8.46395 8.81063 9.38572 9.69525C10.554 10.7858 10.4425 12.2411 10.4425 13.8246V17.5657C10.4425 18.69 10.9085 19.183 11.3474 19.7908C11.5027 20.0068 11.5365 20.2668 11.3407 20.4289C10.8511 20.8374 9.97997 21.5971 9.50051 22.0226L9.49377 22.0158Z" fill="#4C4C4D"/>
    </g>
    <defs>
        <clipPath id="clip0_14_196228">
            <rect width="77.9166" height="34" fill="white"/>
        </clipPath>
    </defs>
</svg>
